<?xml version="1.0" encoding="iso-8859-1"?>
<!-- Generator: Adobe Illustrator 19.0.0, SVG Export Plug-In . SVG Version: 6.00 Build 0)  -->
<svg version="1.1" id="Capa_1" xmlns="http://www.w3.org/2000/svg" xmlns:xlink="http://www.w3.org/1999/xlink" x="0px" y="0px"
	 viewBox="0 0 472.026 472.026" style="enable-background:new 0 0 472.026 472.026;" xml:space="preserve">
<path style="fill:#93CAE2;" d="M28.013,88.026h312v336c13.255,0,24,10.745,24,24s-10.745,24-24,24l0,0h-312
	c-13.255,0-24-10.745-24-24l0,0c0-13.255,10.745-24,24-24V88.026z"/>
<path style="fill:#F8CF26;" d="M308.013,200.026v160c0,26.51-21.49,48-48,48h-152c-26.51,0-48-21.49-48-48v-160"/>
<path style="fill:#06AAE9;" d="M116.013,184.026c-4.418,0-8-3.582-8-8v-12c0-11.046-8.954-20-20-20s-20,8.954-20,20v12
	c0,4.418-3.582,8-8,8s-8-3.582-8-8v-12c0-19.882,16.118-36,36-36s36,16.118,36,36v12
	C124.013,180.444,120.431,184.026,116.013,184.026z"/>
<path style="fill:#29ABE2;" d="M340.013,392.026h64c35.346,0,64-28.654,64-64v-152c0-35.346-28.654-64-64-64h-64v40h40
	c26.51,0,48,21.49,48,48v104c0,26.51-21.49,48-48,48h-40V392.026z"/>
<g>
	<circle style="fill:#FBB03B;" cx="228.013" cy="352.026" r="24"/>
	<circle style="fill:#FBB03B;" cx="176.013" cy="292.026" r="12"/>
	<circle style="fill:#FBB03B;" cx="256.013" cy="260.026" r="12"/>
	<path style="fill:#FBB03B;" d="M116.013,272.026c-4.418,0-8-3.582-8-8v-40c0-4.418,3.582-8,8-8s8,3.582,8,8v40
		C124.013,268.444,120.431,272.026,116.013,272.026z"/>
</g>
<g>
	<path style="fill:#06AAE9;" d="M212.013,184.026c-4.418,0-8-3.582-8-8v-12c0-11.046-8.954-20-20-20s-20,8.954-20,20v12
		c0,4.418-3.582,8-8,8s-8-3.582-8-8v-12c0-19.882,16.118-36,36-36s36,16.118,36,36v12
		C220.013,180.444,216.431,184.026,212.013,184.026z"/>
	<path style="fill:#06AAE9;" d="M304.013,184.026c-4.418,0-8-3.582-8-8v-12c0-11.046-8.954-20-20-20s-20,8.954-20,20v12
		c0,4.418-3.582,8-8,8s-8-3.582-8-8v-12c0-19.882,16.118-36,36-36s36,16.118,36,36v12
		C312.013,180.444,308.431,184.026,304.013,184.026z"/>
</g>
<g>
	<path style="fill:#FBB03B;" d="M212.013,272.026c-4.418,0-8-3.582-8-8v-40c0-4.418,3.582-8,8-8s8,3.582,8,8v40
		C220.013,268.444,216.431,272.026,212.013,272.026z"/>
	<circle style="fill:#FBB03B;" cx="280.013" cy="228.026" r="4"/>
</g>
<path style="fill:#F2F2F2;" d="M260.013,88.026v44c0,11.046,8.954,20,20,20s20-8.954,20-20v-32c0,11.046,8.954,20,20,20
	s20-8.954,20-20v-12c8,0,8-16,8-16c0-13.256-18.744-24-32-24c-0.488,0-0.944,0.112-1.424,0.144
	c-4.211-12.442-17.712-19.114-30.154-14.903c-0.455,0.154-0.905,0.322-1.35,0.503c-3.274-12.666-16.196-20.28-28.862-17.006
	c-1.79,0.463-3.52,1.133-5.154,1.998C241.85,2.737,223.007-4.402,206.982,2.816c-6.01,2.707-11.031,7.214-14.369,12.897
	c-11.812-10.273-29.388-10.273-41.2,0C142.535,0.571,123.061-4.508,107.918,4.37c-6.563,3.848-11.528,9.922-13.994,17.12
	c-14.599-9.866-34.432-6.03-44.298,8.569c-2.073,3.068-3.597,6.473-4.502,10.063c-0.384,0-0.736-0.096-1.112-0.096
	C26.34,40.011,12.001,54.326,11.987,71.999c-0.009,11.453,6.102,22.037,16.026,27.754V88.026H260.013z"/>
<g>
</g>
<g>
</g>
<g>
</g>
<g>
</g>
<g>
</g>
<g>
</g>
<g>
</g>
<g>
</g>
<g>
</g>
<g>
</g>
<g>
</g>
<g>
</g>
<g>
</g>
<g>
</g>
<g>
</g>
</svg>
