<?xml version="1.0" encoding="iso-8859-1"?>
<!-- Generator: Adobe Illustrator 19.0.0, SVG Export Plug-In . SVG Version: 6.00 Build 0)  -->
<svg version="1.1" id="Capa_1" xmlns="http://www.w3.org/2000/svg" xmlns:xlink="http://www.w3.org/1999/xlink" x="0px" y="0px"
	 viewBox="0 0 512 512" style="enable-background:new 0 0 512 512;" xml:space="preserve">
<g>
	<path style="fill:#E6E7E8;" d="M412.203,355.797C412.203,442.065,342.269,512,256,512S99.797,442.065,99.797,355.797
		S169.731,199.593,256,199.593c41.505-0.252,81.382,16.124,110.731,45.473C396.079,274.415,412.456,314.292,412.203,355.797z"/>
	<path id="SVGCleanerId_0" style="fill:#E6E7E8;" d="M507.661,164.881v269.017c0.002,9.207-3.654,18.037-10.164,24.548
		c-6.51,6.51-15.341,10.167-24.548,10.164H363.953c46.122-44.103,60.779-111.827,37.02-171.054S319.815,199.511,256,199.511
		s-121.213,38.818-144.973,98.045s-9.103,126.951,37.02,171.054H39.051c-9.207,0.002-18.037-3.654-24.548-10.164
		c-6.51-6.51-10.167-15.341-10.164-24.548l0-269.017H507.661z"/>
	<g>
		<path style="fill:#E6E7E8;" d="M507.661,86.78v78.102H4.339l0-78.102c-0.003-9.207,3.654-18.037,10.164-24.548
			s15.341-10.167,24.548-10.164h43.39c0,19.171,15.541,34.712,34.712,34.712s34.712-15.541,34.712-34.712h208.271
			c0,19.171,15.541,34.712,34.712,34.712c19.171,0,34.712-15.541,34.712-34.712h43.39c9.207-0.003,18.037,3.654,24.548,10.164
			C504.007,68.742,507.664,77.573,507.661,86.78z"/>
		<path style="fill:#E6E7E8;" d="M299.39,407.864c-2.302,0.003-4.51-0.912-6.135-2.543l-43.39-43.39
			c-1.628-1.627-2.543-3.834-2.543-6.135V242.983c0-4.793,3.885-8.678,8.678-8.678c4.793,0,8.678,3.885,8.678,8.678v109.22
			l40.847,40.847c2.481,2.482,3.224,6.214,1.881,9.456C306.063,405.749,302.899,407.864,299.39,407.864z"/>
	</g>
	<path style="fill:#95A5A5;" d="M412.203,355.797C412.203,442.065,342.269,512,256,512S99.797,442.065,99.797,355.797
		S169.731,199.593,256,199.593c41.505-0.252,81.382,16.124,110.731,45.473C396.079,274.415,412.456,314.292,412.203,355.797z"/>
	<g>
		<path id="SVGCleanerId_0_1_" style="fill:#E6E7E8;" d="M507.661,164.881v269.017c0.002,9.207-3.654,18.037-10.164,24.548
			c-6.51,6.51-15.341,10.167-24.548,10.164H363.953c46.122-44.103,60.779-111.827,37.02-171.054S319.815,199.511,256,199.511
			s-121.213,38.818-144.973,98.045s-9.103,126.951,37.02,171.054H39.051c-9.207,0.002-18.037-3.654-24.548-10.164
			c-6.51-6.51-10.167-15.341-10.164-24.548l0-269.017H507.661z"/>
	</g>
	<path style="fill:#C03A2B;" d="M507.661,86.78v78.102H4.339l0-78.102c-0.003-9.207,3.654-18.037,10.164-24.548
		s15.341-10.167,24.548-10.164h43.39c0,19.171,15.541,34.712,34.712,34.712s34.712-15.541,34.712-34.712h208.271
		c0,19.171,15.541,34.712,34.712,34.712c19.171,0,34.712-15.541,34.712-34.712h43.39c9.207-0.003,18.037,3.654,24.548,10.164
		C504.007,68.742,507.664,77.573,507.661,86.78z"/>
	<g>
		<path style="fill:#547580;" d="M117.153,60.746c-2.302,0.001-4.51-0.913-6.138-2.54c-1.628-1.628-2.542-3.836-2.54-6.138V8.678
			c0-4.793,3.885-8.678,8.678-8.678c4.793,0,8.678,3.885,8.678,8.678v43.39c0.001,2.302-0.913,4.51-2.54,6.138
			C121.663,59.833,119.454,60.747,117.153,60.746z"/>
		<path style="fill:#547580;" d="M394.847,60.746c-2.302,0.001-4.51-0.913-6.138-2.54c-1.628-1.628-2.542-3.836-2.54-6.138V8.678
			c0-4.793,3.885-8.678,8.678-8.678c4.793,0,8.678,3.885,8.678,8.678v43.39c0.001,2.302-0.913,4.51-2.54,6.138
			C399.357,59.833,397.149,60.747,394.847,60.746z"/>
		<path style="fill:#547580;" d="M299.39,407.864c-2.302,0.003-4.51-0.912-6.135-2.543l-43.39-43.39
			c-1.628-1.627-2.543-3.834-2.543-6.135V242.983c0-4.793,3.885-8.678,8.678-8.678c4.793,0,8.678,3.885,8.678,8.678v109.22
			l40.847,40.847c2.481,2.482,3.224,6.214,1.881,9.456C306.063,405.749,302.899,407.864,299.39,407.864z"/>
	</g>
</g>
<g>
</g>
<g>
</g>
<g>
</g>
<g>
</g>
<g>
</g>
<g>
</g>
<g>
</g>
<g>
</g>
<g>
</g>
<g>
</g>
<g>
</g>
<g>
</g>
<g>
</g>
<g>
</g>
<g>
</g>
</svg>
